PathFileType	4	(X/Y/Z)	C:/Users/beibeiliu/ov580/test_trc/User1\sequence.18_training_dense_left.trc
DataRate	CameraRate	NumFrames	NumMarkers	Units	OrigDataRate	OrigDataStartFrame	OrigNumFrames
120	120	8	19	mm	120	251	286
Frame#	Time	ThumbCMC			ThumbMCP			ThumbIP			ThumbTip			IndexMCP			IndexPIP			IndexTip			MiddleMCP			MiddlePIP			MiddleTip			RingMCP			RingPIP			RingTip			PinkyMCP			PinkyPIP			PinkyTip			BackHand1			BackHand2			BackHand3	
		X0	Y0	Z0	X1	Y1	Z1	X2	Y2	Z2	X3	Y3	Z3	X4	Y4	Z4	X5	Y5	Z5	X6	Y6	Z6	X7	Y7	Z7	X8	Y8	Z8	X9	Y9	Z9	X10	Y10	Z10	X11	Y11	Z11	X12	Y12	Z12	X13	Y13	Z13	X14	Y14	Z14	X15	Y15	Z15	X16	Y16	Z16	X17	Y17	Z17	X18	Y18	Z18	
250	2.08333	-164.853	31.9757	32.0861	-143.324	33.0896	-3.91711	-155.186	34.7032	-33.5915	-176.734	22.6932	-46.3624	-166.074	80.5479	-34.9485	-157.025	58.7866	-58.3898	-152.312	35.6241	-25.6757	-191.234	76.2738	-50.3679	-171.048	55.8427	-66.3169	-172.746	31.5683	-37.201	-207.171	59.5526	-50.0579	-191.26	35.9978	-68.1664	-187.917	19.1687	-40.2626	-222.367	39.2164	-44.2019	-202.049	21.8308	-59.2694	-195.309	3.40206	-33.6971	-225.806	47.2096	9.63361	-228.617	28.3903	38.5014	-199.56	49.8785	34.6224	
251	2.09167	-160.695	32.7057	37.4812	-142.186	34.4486	0.524903	-154.266	37.7113	-29.9948	-180.096	28.3654	-41.9879	-166.139	84.0256	-32.5922	-153.104	63.6222	-52.7022	-150.393	41.526	-26.7604	-187.961	81.6881	-43.5062	-172.01	62.0461	-63.7519	-170.938	36.9424	-33.9347	-206.161	65.9825	-49.8702	-186.713	44.7677	-65.1203	-188.533	23.9494	-37.082	-221.034	43.4163	-40.5854	-200.022	28.742	-57.398	-194.071	8.7333	-28.3526	-224.621	51.7069	10.9347	-229.717	30.8731	41.3931	-202.039	53.7084	36.7983	
252	2.1	-163.345	34.0575	38.4994	-142.682	41.1279	-0.859197	-152.326	42.2772	-28.2293	-179.429	30.9086	-43.0938	-165.757	88.0784	-25.418	-153.438	65.4386	-48.9441	-151.555	43.3796	-21.1612	-188.999	86.2447	-41.7879	-169.608	67.906	-60.1688	-169.956	40.7273	-27.5149	-206.132	70.0898	-45.3256	-187.779	51.9015	-62.9886	-188.6	27.8619	-38.1846	-222.497	47.6312	-43.4851	-197.611	32.6945	-52.1628	-193.874	15.2754	-26.8668	-224.229	51.2437	14.2108	-229.289	32.9225	42.9951	-199.837	56.2867	40.5164	
253	2.10833	-158.495	35.6899	41.4461	-143.775	41.1438	2.51904	-151.629	45.9646	-28.479	-179.704	34.4533	-44.4015	-167.641	90.5473	-27.1383	-151.59	73.0993	-46.9143	-148.041	47.4478	-21.3096	-187.555	90.1543	-38.6464	-169.068	73.7021	-58.5328	-170.051	44.6431	-29.6902	-206.422	73.5116	-45.9031	-189.144	53.0915	-61.5618	-188.576	31.7178	-32.8839	-221.777	51.9837	-40.3812	-198.126	36.4825	-51.7198	-192.226	15.7709	-29.7144	-225.755	56.0382	13.9539	-230.283	35.9867	41.9553	-195.844	58.4981	41.2428	
254	2.11667	-161.481	41.6441	38.4984	-141.513	44.5641	1.28465	-151.189	47.8654	-26.4276	-181.7	38.4553	-41.6592	-164.433	94.1042	-21.7334	-149.81	75.8755	-44.6752	-149.155	50.1313	-17.127	-191.523	92.6482	-33.2685	-170.263	76.7398	-57.417	-169.64	46.6487	-25.5494	-207.719	77.3735	-40.8465	-185.719	56.8188	-58.6827	-188.384	35.0656	-32.6284	-223.346	54.2003	-38.756	-198.973	42.8528	-51.0063	-191.726	21.215	-26.4948	-223.837	58.9775	16.6628	-227.17	36.9085	43.5255	-196.397	59.2462	44.575	
255	2.125	-162.577	43.2272	38.1946	-142.281	45.1879	3.84022	-149.237	49.4997	-26.5943	-179.291	40.8404	-40.8986	-164.904	97.4935	-20.5488	-150.639	76.5186	-44.7632	-150.777	51.2175	-21.5359	-185.101	96.9419	-33.5769	-171.185	79.4508	-56.9854	-170.228	48.7871	-29.6111	-204.348	80.6819	-39.3864	-186.452	58.0493	-59.3184	-184.347	37.2585	-31.4038	-219.3	58.734	-40.11	-199.886	43.05	-54.1379	-191.518	21.1245	-26.8601	-223.25	60.4632	16.1473	-227.679	39.4485	43.9946	-199.968	60.6418	44.5176	
256	2.13333	-160.045	43.5641	40.4155	-139.553	45.0938	2.14525	-150.185	49.4273	-26.3596	-176.02	41.0363	-46.5258	-161.661	97.8665	-20.2983	-144.174	78.0726	-44.443	-147.738	51.3766	-20.9963	-188.313	95.5985	-36.5587	-167.426	79.1882	-59.5379	-165.639	48.6893	-33.7445	-199.836	80.6767	-44.9876	-182.979	59.3191	-61.2421	-182.632	38.0145	-34.9454	-218.349	57.8457	-41.8015	-193.309	45.0501	-52.1456	-187.371	24.6406	-28.2305	-223.506	61.6471	12.1746	-229.165	42.2628	42.1076	-201.316	62.9962	41.9955	
257	2.14167	-157.516	44.5859	37.4771	-136.975	43.83	-1.34638	-145.052	44.4447	-28.0622	-167.698	37.4744	-49.1115	-155.231	96.602	-30.7307	-144.879	71.8302	-49.9496	-146.709	48.4822	-27.1785	-178.596	96.1851	-42.3621	-162.121	70.8832	-63.6027	-160.843	45.5585	-35.8603	-198.851	77.4097	-47.8661	-179.302	54.6473	-65.796	-176.291	34.9634	-38.2843	-213.933	54.5368	-46.7608	-190.666	37.335	-54.3364	-185.916	18.7672	-28.1903	-220.527	64.4284	5.88892	-229.539	45.5283	37.6861	-197.779	68.2192	32.3241	
